<?xml version="1.0" encoding="UTF-8" standalone="no"?>
<!DOCTYPE svg PUBLIC "-//W3C//DTD SVG 1.1//EN"
 "http://www.w3.org/Graphics/SVG/1.1/DTD/svg11.dtd">
<!-- Generated by graphviz version 2.46.0 (20210118.1747)
 -->
<!-- Pages: 1 -->
<svg width="364pt" height="280pt"
 viewBox="0.00 0.00 363.72 280.20" xmlns="http://www.w3.org/2000/svg" xmlns:xlink="http://www.w3.org/1999/xlink">
<g id="graph0" class="graph" transform="scale(1 1) rotate(0) translate(4 276.2)">
<polygon fill="white" stroke="transparent" points="-4,4 -4,-276.2 359.72,-276.2 359.72,4 -4,4"/>
<!-- v_0 -->
<g id="node1" class="node">
<title>v_0</title>
<ellipse fill="none" stroke="black" cx="246.69" cy="-18" rx="27" ry="18"/>
<text text-anchor="middle" x="246.69" y="-14.3" font-family="Times New Roman,serif" font-size="14.00">x</text>
<text text-anchor="middle" x="207.69" y="-39.8" font-family="Times New Roman,serif" font-size="14.00">(2, )</text>
</g>
<!-- v_1 -->
<g id="node2" class="node">
<title>v_1</title>
<ellipse fill="none" stroke="black" cx="310.36" cy="-239.2" rx="27" ry="18"/>
<text text-anchor="middle" x="310.36" y="-235.5" font-family="Times New Roman,serif" font-size="14.00">y</text>
<text text-anchor="middle" x="271.36" y="-261" font-family="Times New Roman,serif" font-size="14.00">(3, )</text>
</g>
<!-- v_2 -->
<g id="node3" class="node">
<title>v_2</title>
<ellipse fill="none" stroke="black" cx="328.72" cy="-74.46" rx="27" ry="18"/>
<text text-anchor="middle" x="328.72" y="-70.76" font-family="Times New Roman,serif" font-size="14.00">2</text>
<text text-anchor="middle" x="289.72" y="-60.26" font-family="Times New Roman,serif" font-size="14.00">(2, )</text>
</g>
<!-- v_3 -->
<g id="node4" class="node">
<title>v_3</title>
<ellipse fill="none" stroke="black" cx="251.99" cy="-98.65" rx="27" ry="18"/>
<text text-anchor="middle" x="251.99" y="-94.95" font-family="Times New Roman,serif" font-size="14.00">^</text>
<text text-anchor="middle" x="212.99" y="-120.45" font-family="Times New Roman,serif" font-size="14.00">(4, )</text>
</g>
<!-- v_3&#45;&gt;v_0 -->
<g id="edge1" class="edge">
<title>v_3&#45;&gt;v_0</title>
<path fill="none" stroke="black" d="M250.79,-80.35C250.13,-70.34 249.3,-57.74 248.56,-46.48"/>
<polygon fill="black" stroke="black" points="252.04,-45.98 247.89,-36.23 245.05,-46.44 252.04,-45.98"/>
</g>
<!-- v_3&#45;&gt;v_2 -->
<g id="edge2" class="edge">
<title>v_3&#45;&gt;v_2</title>
<path fill="none" stroke="black" d="M276.69,-90.86C282.3,-89.09 288.37,-87.18 294.3,-85.31"/>
<polygon fill="black" stroke="black" points="295.58,-88.58 304.07,-82.23 293.48,-81.9 295.58,-88.58"/>
</g>
<!-- v_4 -->
<g id="node5" class="node">
<title>v_4</title>
<ellipse fill="none" stroke="black" cx="256.42" cy="-181.95" rx="27" ry="18"/>
<text text-anchor="middle" x="256.42" y="-178.25" font-family="Times New Roman,serif" font-size="14.00">*</text>
<text text-anchor="middle" x="213.92" y="-167.75" font-family="Times New Roman,serif" font-size="14.00">(12, )</text>
</g>
<!-- v_4&#45;&gt;v_1 -->
<g id="edge3" class="edge">
<title>v_4&#45;&gt;v_1</title>
<path fill="none" stroke="black" d="M270.88,-197.29C276.44,-203.19 282.92,-210.07 288.99,-216.52"/>
<polygon fill="black" stroke="black" points="286.46,-218.94 295.87,-223.81 291.56,-214.14 286.46,-218.94"/>
</g>
<!-- v_4&#45;&gt;v_3 -->
<g id="edge4" class="edge">
<title>v_4&#45;&gt;v_3</title>
<path fill="none" stroke="black" d="M255.46,-163.87C254.88,-153.07 254.14,-139.1 253.49,-126.87"/>
<polygon fill="black" stroke="black" points="256.98,-126.49 252.95,-116.69 249.99,-126.86 256.98,-126.49"/>
</g>
<!-- v_5 -->
<g id="node6" class="node">
<title>v_5</title>
<ellipse fill="none" stroke="black" cx="182.48" cy="-217.12" rx="28.7" ry="18"/>
<text text-anchor="middle" x="182.48" y="-213.42" font-family="Times New Roman,serif" font-size="14.00">Sin()</text>
<text text-anchor="middle" x="124.88" y="-238.92" font-family="Times New Roman,serif" font-size="14.00">(Sin(12), )</text>
</g>
<!-- v_5&#45;&gt;v_4 -->
<g id="edge6" class="edge">
<title>v_5&#45;&gt;v_4</title>
<path fill="none" stroke="black" d="M205.47,-206.18C211.62,-203.26 218.38,-200.04 224.91,-196.94"/>
<polygon fill="black" stroke="black" points="226.68,-199.97 234.21,-192.52 223.67,-193.65 226.68,-199.97"/>
</g>
<!-- v_6 -->
<g id="node7" class="node">
<title>v_6</title>
<ellipse fill="none" stroke="black" cx="169.26" cy="-96.99" rx="31.4" ry="18"/>
<text text-anchor="middle" x="169.26" y="-93.29" font-family="Times New Roman,serif" font-size="14.00">Exp()</text>
<text text-anchor="middle" x="111.56" y="-118.79" font-family="Times New Roman,serif" font-size="14.00">(exp(4), )</text>
</g>
<!-- v_6&#45;&gt;v_3 -->
<g id="edge5" class="edge">
<title>v_6&#45;&gt;v_3</title>
<path fill="none" stroke="black" d="M200.54,-97.61C205.19,-97.71 210.03,-97.8 214.79,-97.9"/>
<polygon fill="black" stroke="black" points="214.93,-101.4 225,-98.1 215.07,-94.41 214.93,-101.4"/>
</g>
<!-- v_7 -->
<g id="node8" class="node">
<title>v_7</title>
<ellipse fill="none" stroke="black" cx="127" cy="-162.84" rx="27" ry="18"/>
<text text-anchor="middle" x="127" y="-159.14" font-family="Times New Roman,serif" font-size="14.00">+</text>
<text text-anchor="middle" x="50" y="-184.64" font-family="Times New Roman,serif" font-size="14.00">(sin(12)+exp(4), )</text>
</g>
<!-- v_7&#45;&gt;v_5 -->
<g id="edge7" class="edge">
<title>v_7&#45;&gt;v_5</title>
<path fill="none" stroke="black" d="M142.45,-177.96C147.66,-183.05 153.58,-188.84 159.25,-194.39"/>
<polygon fill="black" stroke="black" points="157.13,-197.21 166.72,-201.7 162.02,-192.21 157.13,-197.21"/>
</g>
<!-- v_7&#45;&gt;v_6 -->
<g id="edge8" class="edge">
<title>v_7&#45;&gt;v_6</title>
<path fill="none" stroke="black" d="M137.66,-146.22C142.21,-139.13 147.63,-130.7 152.68,-122.83"/>
<polygon fill="black" stroke="black" points="155.7,-124.6 158.16,-114.29 149.81,-120.81 155.7,-124.6"/>
</g>
</g>
</svg>
